<?xml version="1.0" encoding="UTF-8"?>
<svg id="_圖層_1" xmlns="http://www.w3.org/2000/svg" version="1.1" viewBox="0 0 200 200">
  <!-- Generator: Adobe Illustrator 29.5.1, SVG Export Plug-In . SVG Version: 2.1.0 Build 141)  -->
  <defs>
    <style>
      .st0 {
        fill: #fff;
      }

      .st1, .st2 {
        stroke: #fff;
        stroke-miterlimit: 10;
      }

      .st2 {
        fill: none;
        stroke-linecap: round;
      }
    </style>
  </defs>
  <line class="st2" x1="115.46" y1="10.34" x2="113.41" y2="21.94"/>
  <line class="st2" x1="123.12" y1="12.04" x2="120.07" y2="23.42"/>
  <line class="st2" x1="130.61" y1="14.4" x2="126.58" y2="25.47"/>
  <line class="st2" x1="137.86" y1="17.4" x2="132.88" y2="28.08"/>
  <line class="st2" x1="144.82" y1="21.03" x2="138.93" y2="31.23"/>
  <line class="st2" x1="151.44" y1="25.24" x2="144.68" y2="34.9"/>
  <line class="st2" x1="157.67" y1="30.02" x2="150.1" y2="39.05"/>
  <line class="st2" x1="163.46" y1="35.33" x2="155.13" y2="43.66"/>
  <line class="st2" x1="168.76" y1="41.11" x2="159.73" y2="48.69"/>
  <line class="st2" x1="173.54" y1="47.34" x2="163.89" y2="54.1"/>
  <line class="st2" x1="177.76" y1="53.96" x2="167.55" y2="59.85"/>
  <line class="st2" x1="181.38" y1="60.92" x2="170.7" y2="65.9"/>
  <line class="st2" x1="184.39" y1="68.18" x2="173.31" y2="72.21"/>
  <line class="st2" x1="186.75" y1="75.66" x2="175.37" y2="78.71"/>
  <line class="st2" x1="188.45" y1="83.33" x2="176.84" y2="85.37"/>
  <line class="st2" x1="188.45" y1="114.58" x2="176.84" y2="112.53"/>
  <line class="st2" x1="186.75" y1="122.24" x2="175.37" y2="119.19"/>
  <line class="st2" x1="184.39" y1="129.73" x2="173.31" y2="125.7"/>
  <line class="st2" x1="181.38" y1="136.98" x2="170.7" y2="132"/>
  <line class="st2" x1="177.76" y1="143.94" x2="167.55" y2="138.05"/>
  <line class="st2" x1="173.54" y1="150.57" x2="163.89" y2="143.81"/>
  <line class="st2" x1="168.76" y1="156.79" x2="159.73" y2="149.22"/>
  <line class="st2" x1="163.46" y1="162.58" x2="155.13" y2="154.25"/>
  <line class="st2" x1="157.67" y1="167.88" x2="150.1" y2="158.86"/>
  <line class="st2" x1="151.44" y1="172.66" x2="144.68" y2="163.01"/>
  <line class="st2" x1="144.82" y1="176.88" x2="138.93" y2="166.68"/>
  <line class="st2" x1="137.86" y1="180.51" x2="132.88" y2="169.83"/>
  <line class="st2" x1="130.61" y1="183.51" x2="126.58" y2="172.44"/>
  <line class="st2" x1="123.12" y1="185.87" x2="120.07" y2="174.49"/>
  <line class="st2" x1="115.46" y1="187.57" x2="113.41" y2="175.96"/>
  <line class="st2" x1="84.21" y1="187.57" x2="86.25" y2="175.96"/>
  <line class="st2" x1="76.54" y1="185.87" x2="79.59" y2="174.49"/>
  <line class="st2" x1="69.05" y1="183.51" x2="73.08" y2="172.44"/>
  <line class="st2" x1="61.8" y1="180.51" x2="66.78" y2="169.83"/>
  <line class="st2" x1="54.84" y1="176.88" x2="60.73" y2="166.68"/>
  <line class="st2" x1="48.22" y1="172.66" x2="54.98" y2="163.01"/>
  <line class="st2" x1="41.99" y1="167.88" x2="49.56" y2="158.86"/>
  <line class="st2" x1="36.2" y1="162.58" x2="44.53" y2="154.25"/>
  <line class="st2" x1="30.9" y1="156.79" x2="39.93" y2="149.22"/>
  <line class="st2" x1="26.12" y1="150.57" x2="35.77" y2="143.81"/>
  <line class="st2" x1="21.9" y1="143.94" x2="32.11" y2="138.05"/>
  <line class="st2" x1="18.28" y1="136.98" x2="28.96" y2="132"/>
  <line class="st2" x1="15.27" y1="129.73" x2="26.35" y2="125.7"/>
  <line class="st2" x1="12.91" y1="122.24" x2="24.3" y2="119.19"/>
  <line class="st2" x1="11.21" y1="114.58" x2="22.82" y2="112.53"/>
  <line class="st2" x1="11.21" y1="83.33" x2="22.82" y2="85.37"/>
  <line class="st2" x1="12.91" y1="75.66" x2="24.3" y2="78.71"/>
  <line class="st2" x1="15.27" y1="68.18" x2="26.35" y2="72.21"/>
  <line class="st2" x1="18.28" y1="60.92" x2="28.96" y2="65.9"/>
  <line class="st2" x1="21.9" y1="53.96" x2="32.11" y2="59.85"/>
  <line class="st2" x1="26.12" y1="47.34" x2="35.77" y2="54.1"/>
  <line class="st2" x1="30.9" y1="41.11" x2="39.93" y2="48.69"/>
  <line class="st2" x1="36.2" y1="35.33" x2="44.53" y2="43.66"/>
  <line class="st2" x1="41.99" y1="30.02" x2="49.56" y2="39.05"/>
  <line class="st2" x1="48.22" y1="25.24" x2="54.98" y2="34.9"/>
  <line class="st2" x1="54.84" y1="21.03" x2="60.73" y2="31.23"/>
  <line class="st2" x1="61.8" y1="17.4" x2="66.78" y2="28.08"/>
  <line class="st2" x1="69.05" y1="14.4" x2="73.08" y2="25.47"/>
  <line class="st2" x1="76.54" y1="12.04" x2="79.59" y2="23.42"/>
  <line class="st2" x1="84.21" y1="10.34" x2="86.25" y2="21.94"/>
  <path class="st1" d="M182.9,93.6v-1.09h.84v1.09h4.8v.82h-4.8v1.09h3.85v4.41h-3.01c.89,1.06,2.29,1.87,4.19,2.47l-.37.79c-2.16-.83-3.68-1.92-4.57-3.26h-.08v3.69h-.84v-3.69h-.1c-.77,1.3-2.24,2.4-4.43,3.32l-.48-.77c2.04-.76,3.43-1.61,4.17-2.55h-3.05v-4.41h3.87v-1.09h-4.8v-.82h4.81ZM182.9,96.27h-3.03v1.1h3.03v-1.1ZM179.86,99.16h3.03v-1.1h-3.03v1.1ZM186.75,96.27h-3.01v1.1h3.01v-1.1ZM183.74,99.16h3.01v-1.1h-3.01v1.1Z"/>
  <path class="st1" d="M99.01,178.69l.14-1.2.88.12c-.04.37-.07.73-.12,1.08h4.81v.82h-4.94c-.07.43-.16.83-.24,1.21h4.55v6.62c0,.76-.36,1.14-1.07,1.14h-1.18l-.23-.84,1.12.02c.34,0,.5-.18.5-.52v-5.61h-7.68v7.02h-.85v-7.83h3.95c.08-.41.17-.82.24-1.21h-4.85v-.82h4.97ZM98.75,183.41h1.26c.26-.49.5-1.01.72-1.56l.79.29c-.22.47-.44.89-.68,1.27h1.37v.76h-2.4v1.26h2.76v.77h-2.76v2.17h-.84v-2.17h-2.75v-.77h2.75v-1.26h-2.36v-.76h1.32c-.18-.43-.4-.84-.65-1.21l.77-.29c.25.42.49.92.71,1.5h-.01Z"/>
  <path class="st1" d="M21.11,92.86v.84h-3.62v1.83h2.93v7.74h-.86v-.54h-7.56v.54h-.86v-7.74h2.85v-1.83h-3.57v-.84h10.7-.01ZM19.56,101.92v-1.91h-1.74c-.79,0-1.18-.4-1.18-1.18v-2.48h-1.8v.24c-.02,1.89-.68,3.27-1.98,4.15l-.67-.59c1.17-.74,1.77-1.93,1.8-3.56v-.24h-1.99v5.56h7.56ZM14.84,95.53h1.8v-1.83h-1.8s0,1.83,0,1.83ZM17.49,98.65c0,.37.18.56.55.56h1.51v-2.87h-2.06v2.3h0Z"/>
  <path class="st1" d="M98.11,9.74v9.06c.34-.08.66-.17.97-.26v.83c-1.54.43-3.18.78-4.95,1.07l-.2-.82c1.14-.14,2.24-.35,3.32-.6v-5.12h-3.11v-.83h3.11v-3.32h.86,0ZM101.41,20.24c-.79,0-1.19-.37-1.19-1.12v-9.39h.87v3.47c1.24-.19,2.33-.49,3.27-.92l.28.79c-1.1.43-2.29.73-3.55.9v5.04c0,.28.17.42.5.42h1.22c.36,0,.61-.08.77-.25.14-.19.25-.8.3-1.86l.79.26c-.07,1.25-.23,2.02-.46,2.28-.23.25-.65.38-1.26.38h-1.56.02Z"/>
  <path class="st0" d="M98.39,8.27l-4.2,14.07c-.42,1.25.79,2.31,1.64,1.45l2.81-2.83c.41-.41,1-.41,1.39.02l3.08,2.81c.8.87,2.05-.12,1.74-1.37l-4.46-14.09c-.29-1.15-1.62-1.19-1.99-.06h-.01Z"/>
  <circle class="st0" cx="99.32" cy="182.98" r="4.14"/>
</svg>