<?xml version="1.0" encoding="UTF-8"?>
<svg id="_圖層_1" data-name="圖層_1" xmlns="http://www.w3.org/2000/svg" xmlns:xlink="http://www.w3.org/1999/xlink" version="1.1" viewBox="0 0 172 172">
  <!-- Generator: Adobe Illustrator 29.5.1, SVG Export Plug-In . SVG Version: 2.1.0 Build 141)  -->
  <defs>
    <style>
      .st0 {
        fill: url(#_未命名漸層_531);
        opacity: .6;
      }

      .st1 {
        fill: #676867;
      }

      .st2 {
        fill: url(#_未命名漸層_53);
      }

      .st3 {
        fill: #fff;
      }

      .st4 {
        fill: #1350e8;
      }

      .st5 {
        fill: none;
        stroke: #0251e7;
        stroke-miterlimit: 10;
      }
      .idx{font-family:'Noto Sans TC','Source Han Sans TW','Source Han Sans',sans-serif;fill:#ffffff;font-size:45px;font-weight:600;text-anchor:middle;dominant-baseline:middle}
    </style>
    <linearGradient id="_未命名漸層_53" data-name="未命名漸層 53" x1="87.03" y1="101.46" x2="105.19" y2="119.61" gradientUnits="userSpaceOnUse">
      <stop offset="0" stop-color="#2b78ff"/>
      <stop offset="1" stop-color="#0d99da"/>
    </linearGradient>
    <linearGradient id="_未命名漸層_531" data-name="未命名漸層 53" x1="19.92" y1="119.46" x2="152" y2="119.46" xlink:href="#_未命名漸層_53"/>
  </defs>
  <ellipse id="progress-ring" cx="87.34" cy="85.93" rx="72.87" ry="70.91"/>
  <path class="st2" d="M19.63,86.49c0,36.36,29.57,65.83,66.04,65.83s66.04-29.47,66.04-65.83c0,0-19.96-6.2-47.14,5.33-21.98,9.32-26.32,13.67-46.62,12.57-24.64-1.33-38.32-17.91-38.32-17.91Z"/>
  <path class="st0" d="M152,86.54c0,36.36-29.57,65.83-66.04,65.83S19.92,122.9,19.92,86.54c0,0,28.54,2.1,56.21,16.94,37.66,20.2,75.86-16.94,75.86-16.94Z"/>
  <path class="st1" d="M86,171.01C39.12,171.01.99,132.87.99,86S39.12.99,86,.99s85.01,38.13,85.01,85.01-38.14,85.01-85.01,85.01ZM86,19.99c-36.4,0-66.01,29.61-66.01,66.01s29.61,66.01,66.01,66.01,66.01-29.61,66.01-66.01S122.4,19.99,86,19.99Z"/>
  <text id="fish-index-label" class="idx" x="86" y="86">86</text>
  <line class="st5" x1="85.81" y1="22.23" x2="85.81" y2="27.04"/>
  <line class="st5" x1="91.36" y1="22.47" x2="90.94" y2="27.26"/>
  <line class="st5" x1="96.87" y1="23.19" x2="96.03" y2="27.93"/>
  <line class="st5" x1="102.29" y1="24.39" x2="101.05" y2="29.04"/>
  <line class="st5" x1="107.59" y1="26.06" x2="105.95" y2="30.57"/>
  <line class="st5" x1="112.73" y1="28.18" x2="110.69" y2="32.54"/>
  <line class="st5" x1="117.66" y1="30.74" x2="115.25" y2="34.9"/>
  <line class="st5" x1="122.34" y1="33.72" x2="119.59" y2="37.66"/>
  <line class="st5" x1="126.75" y1="37.1" x2="123.66" y2="40.78"/>
  <line class="st5" x1="130.85" y1="40.84" x2="127.45" y2="44.25"/>
  <line class="st5" x1="134.61" y1="44.94" x2="130.92" y2="48.03"/>
  <line class="st5" x1="137.99" y1="49.34" x2="134.05" y2="52.1"/>
  <line class="st5" x1="140.98" y1="54.02" x2="136.82" y2="56.43"/>
  <line class="st5" x1="143.55" y1="58.95" x2="139.19" y2="60.98"/>
  <line class="st5" x1="145.68" y1="64.08" x2="141.16" y2="65.72"/>
  <line class="st5" x1="147.36" y1="69.38" x2="142.71" y2="70.62"/>
  <line class="st5" x1="148.56" y1="74.8" x2="143.83" y2="75.63"/>
  <line class="st5" x1="149.29" y1="80.3" x2="144.5" y2="80.72"/>
  <line class="st5" x1="149.54" y1="85.85" x2="144.73" y2="85.85"/>
  <line class="st5" x1="149.3" y1="91.4" x2="144.51" y2="90.98"/>
  <line class="st5" x1="148.58" y1="96.91" x2="143.85" y2="96.08"/>
  <line class="st5" x1="147.39" y1="102.34" x2="142.74" y2="101.09"/>
  <line class="st5" x1="145.72" y1="107.63" x2="141.2" y2="105.99"/>
  <line class="st5" x1="143.6" y1="112.77" x2="139.24" y2="110.74"/>
  <line class="st5" x1="141.04" y1="117.7" x2="136.87" y2="115.29"/>
  <line class="st5" x1="138.06" y1="122.39" x2="134.12" y2="119.63"/>
  <line class="st5" x1="134.68" y1="126.8" x2="131" y2="123.7"/>
  <line class="st5" x1="130.93" y1="130.89" x2="127.53" y2="127.49"/>
  <line class="st5" x1="126.84" y1="134.65" x2="123.75" y2="130.97"/>
  <line class="st5" x1="122.43" y1="138.04" x2="119.68" y2="134.1"/>
  <line class="st5" x1="117.75" y1="141.03" x2="115.35" y2="136.86"/>
  <line class="st5" x1="112.83" y1="143.59" x2="110.79" y2="139.24"/>
  <line class="st5" x1="107.7" y1="145.72" x2="106.05" y2="141.2"/>
  <line class="st5" x1="102.4" y1="147.4" x2="101.16" y2="142.75"/>
  <line class="st5" x1="96.98" y1="148.61" x2="96.14" y2="143.87"/>
  <line class="st5" x1="91.47" y1="149.34" x2="91.05" y2="144.55"/>
  <line class="st5" x1="85.92" y1="149.58" x2="85.92" y2="144.77"/>
  <line class="st5" x1="80.37" y1="149.35" x2="80.79" y2="144.55"/>
  <line class="st5" x1="74.86" y1="148.63" x2="75.7" y2="143.89"/>
  <line class="st5" x1="69.44" y1="147.43" x2="70.69" y2="142.78"/>
  <line class="st5" x1="64.14" y1="145.76" x2="65.79" y2="141.24"/>
  <line class="st5" x1="59.01" y1="143.64" x2="61.04" y2="139.28"/>
  <line class="st5" x1="54.08" y1="141.08" x2="56.48" y2="136.92"/>
  <line class="st5" x1="49.39" y1="138.1" x2="52.15" y2="134.16"/>
  <line class="st5" x1="44.98" y1="134.72" x2="48.07" y2="131.04"/>
  <line class="st5" x1="40.88" y1="130.97" x2="44.28" y2="127.57"/>
  <line class="st5" x1="37.12" y1="126.88" x2="40.81" y2="123.79"/>
  <line class="st5" x1="33.74" y1="122.48" x2="37.68" y2="119.72"/>
  <line class="st5" x1="30.75" y1="117.79" x2="34.92" y2="115.39"/>
  <line class="st5" x1="28.18" y1="112.87" x2="32.54" y2="110.84"/>
  <line class="st5" x1="26.05" y1="107.74" x2="30.57" y2="106.09"/>
  <line class="st5" x1="24.38" y1="102.44" x2="29.02" y2="101.2"/>
  <line class="st5" x1="23.17" y1="97.02" x2="27.91" y2="96.19"/>
  <line class="st5" x1="22.44" y1="91.51" x2="27.23" y2="91.09"/>
  <line class="st5" x1="22.19" y1="85.96" x2="27" y2="85.96"/>
  <line class="st5" x1="22.43" y1="80.41" x2="27.22" y2="80.83"/>
  <line class="st5" x1="23.15" y1="74.91" x2="27.89" y2="75.74"/>
  <line class="st5" x1="24.35" y1="69.48" x2="28.99" y2="70.73"/>
  <line class="st5" x1="26.01" y1="64.18" x2="30.53" y2="65.83"/>
  <line class="st5" x1="28.13" y1="59.05" x2="32.49" y2="61.08"/>
  <line class="st5" x1="30.7" y1="54.12" x2="34.86" y2="56.52"/>
  <line class="st5" x1="33.68" y1="49.43" x2="37.62" y2="52.19"/>
  <line class="st5" x1="37.05" y1="45.02" x2="40.74" y2="48.11"/>
  <line class="st5" x1="40.8" y1="40.92" x2="44.2" y2="44.32"/>
  <line class="st5" x1="44.9" y1="37.17" x2="47.99" y2="40.85"/>
  <line class="st5" x1="49.3" y1="33.78" x2="52.06" y2="37.72"/>
  <line class="st5" x1="53.98" y1="30.79" x2="56.39" y2="34.96"/>
  <line class="st5" x1="58.91" y1="28.22" x2="60.94" y2="32.58"/>
  <line class="st5" x1="64.04" y1="26.09" x2="65.68" y2="30.61"/>
  <line class="st5" x1="69.33" y1="24.42" x2="70.58" y2="29.06"/>
  <line class="st5" x1="74.76" y1="23.21" x2="75.59" y2="27.95"/>
  <line class="st5" x1="80.26" y1="22.48" x2="80.68" y2="27.27"/>
  <path class="st4" d="M86,.99c-.22,0-.44.02-.67.02v19c.22,0,.44-.02.67-.02,36.4,0,66.01,29.61,66.01,66.01s-29.61,66.01-66.01,66.01S19.99,122.4,19.99,86c0-10.09,2.28-19.65,6.35-28.21l-16.77-8.96C4.08,60.06.99,72.68.99,86c0,46.88,38.14,85.01,85.01,85.01s85.01-38.14,85.01-85.01S132.87.99,86,.99Z"/>
  <g>
    <path class="st3" d="M44.31,120.07v-4.93c.12-.34.45-.51.79-.33l2.08,1.99c1.38-1.73,3.67-2.48,5.85-1.82,1.13.34,2.48,1.3,3.01,2.34.12.23.12.33,0,.57-.53,1.05-1.88,2-3.01,2.34-2.18.66-4.47-.09-5.85-1.82l-2.09,2c-.34.17-.66-.01-.78-.34Z"/>
    <path class="st3" d="M68.03,120.07v-4.93c.12-.34.45-.51.79-.33l2.08,1.99c1.38-1.73,3.67-2.48,5.85-1.82,1.13.34,2.48,1.3,3.01,2.34.12.23.12.33,0,.57-.53,1.05-1.88,2-3.01,2.34-2.18.66-4.47-.09-5.85-1.82l-2.09,2c-.34.17-.66-.01-.78-.34Z"/>
    <path class="st3" d="M91.75,120.07v-4.93c.12-.34.45-.51.79-.33l2.08,1.99c1.38-1.73,3.67-2.48,5.85-1.82,1.13.34,2.48,1.3,3.01,2.34.12.23.12.33,0,.57-.53,1.05-1.88,2-3.01,2.34-2.18.66-4.47-.09-5.85-1.82l-2.09,2c-.34.17-.66-.01-.78-.34Z"/>
    <path class="st3" d="M115.48,120.07v-4.93c.12-.34.45-.51.79-.33l2.08,1.99c1.38-1.73,3.67-2.48,5.85-1.82,1.13.34,2.48,1.3,3.01,2.34.12.23.12.33,0,.57-.53,1.05-1.88,2-3.01,2.34-2.18.66-4.47-.09-5.85-1.82l-2.09,2c-.34.17-.66-.01-.78-.34Z"/>
    <path class="st3" d="M57.64,125.92v-4.93c.12-.34.45-.51.79-.33l2.08,1.99c1.38-1.73,3.67-2.48,5.85-1.82,1.13.34,2.48,1.3,3.01,2.34.12.23.12.33,0,.57-.53,1.05-1.88,2-3.01,2.34-2.18.66-4.47-.09-5.85-1.82l-2.09,2c-.34.17-.66-.01-.78-.34Z"/>
    <path class="st3" d="M81.37,125.92v-4.93c.12-.34.45-.51.79-.33l2.08,1.99c1.38-1.73,3.67-2.48,5.85-1.82,1.13.34,2.48,1.3,3.01,2.34.12.23.12.33,0,.57-.53,1.05-1.88,2-3.01,2.34-2.18.66-4.47-.09-5.85-1.82l-2.09,2c-.34.17-.66-.01-.78-.34Z"/>
    <path class="st3" d="M105.09,125.92v-4.93c.12-.34.45-.51.79-.33l2.08,1.99c1.38-1.73,3.67-2.48,5.85-1.82,1.13.34,2.48,1.3,3.01,2.34.12.23.12.33,0,.57-.53,1.05-1.88,2-3.01,2.34-2.18.66-4.47-.09-5.85-1.82l-2.09,2c-.34.17-.66-.01-.78-.34Z"/>
    <path class="st3" d="M69.31,131.77v-4.93c.12-.34.45-.51.79-.33l2.08,1.99c1.38-1.73,3.67-2.48,5.85-1.82,1.13.34,2.48,1.3,3.01,2.34.12.23.12.33,0,.57-.53,1.05-1.88,2-3.01,2.34-2.18.66-4.47-.09-5.85-1.82l-2.09,2c-.34.17-.66-.01-.78-.34Z"/>
    <path class="st3" d="M93.03,131.77v-4.93c.12-.34.45-.51.79-.33l2.08,1.99c1.38-1.73,3.67-2.48,5.85-1.82,1.13.34,2.48,1.3,3.01,2.34.12.23.12.33,0,.57-.53,1.05-1.88,2-3.01,2.34-2.18.66-4.47-.09-5.85-1.82l-2.09,2c-.34.17-.66-.01-.78-.34Z"/>
    <path class="st3" d="M81.81,136.84v-4.93c.12-.34.45-.51.79-.33l2.08,1.99c1.38-1.73,3.67-2.48,5.85-1.82,1.13.34,2.48,1.3,3.01,2.34.12.23.12.33,0,.57-.53,1.05-1.88,2-3.01,2.34-2.18.66-4.47-.09-5.85-1.82l-2.09,2c-.34.17-.66-.01-.78-.34Z"/>
  </g>
</svg>